<mxfile host="app.diagrams.net" modified="2024-07-17T02:43:52.706Z" agent="Mozilla/5.0 (Windows NT 10.0; Win64; x64) AppleWebKit/537.36 (KHTML, like Gecko) Chrome/126.0.0.0 Safari/537.36 Edg/126.0.0.0" etag="vK8VTVADqWmsfqRy0Qly" version="24.6.5" type="device">
  <diagram name="Page-1" id="ctpkGWyM_tNQzG_XhQKv">
    <mxGraphModel dx="1181" dy="1027" grid="0" gridSize="10" guides="1" tooltips="1" connect="1" arrows="1" fold="1" page="0" pageScale="1" pageWidth="850" pageHeight="1100" math="0" shadow="0">
      <root>
        <mxCell id="0" />
        <mxCell id="1" parent="0" />
        <mxCell id="OfcB3pMj_d2IAtpUaRiv-11" style="edgeStyle=none;curved=1;rounded=0;orthogonalLoop=1;jettySize=auto;html=1;entryX=1;entryY=0.5;entryDx=0;entryDy=0;fontSize=12;startSize=8;endSize=8;" edge="1" parent="1" source="6oHL9z6mDf9-s6vMRrMC-1" target="6oHL9z6mDf9-s6vMRrMC-4">
          <mxGeometry relative="1" as="geometry" />
        </mxCell>
        <mxCell id="6oHL9z6mDf9-s6vMRrMC-1" value="KERNEL FUNCTION&lt;div&gt;__global__&lt;br&gt;&lt;/div&gt;" style="rounded=1;whiteSpace=wrap;html=1;" parent="1" vertex="1">
          <mxGeometry x="140" y="114" width="167" height="60" as="geometry" />
        </mxCell>
        <mxCell id="6oHL9z6mDf9-s6vMRrMC-4" value="HOST FUNCTION&lt;div&gt;__host__&lt;br&gt;&lt;/div&gt;" style="rounded=1;whiteSpace=wrap;html=1;" parent="1" vertex="1">
          <mxGeometry x="-74" y="110" width="167" height="60" as="geometry" />
        </mxCell>
        <mxCell id="6oHL9z6mDf9-s6vMRrMC-5" value="DEVICE FUNCTION&lt;div&gt;__device__&lt;/div&gt;" style="rounded=1;whiteSpace=wrap;html=1;" parent="1" vertex="1">
          <mxGeometry x="354" y="114" width="167" height="60" as="geometry" />
        </mxCell>
        <mxCell id="6oHL9z6mDf9-s6vMRrMC-8" value="" style="endArrow=classic;html=1;rounded=0;fontSize=12;startSize=8;endSize=8;curved=1;entryX=1;entryY=0.5;entryDx=0;entryDy=0;exitX=0;exitY=0.5;exitDx=0;exitDy=0;" parent="1" source="6oHL9z6mDf9-s6vMRrMC-5" target="6oHL9z6mDf9-s6vMRrMC-1" edge="1">
          <mxGeometry width="50" height="50" relative="1" as="geometry">
            <mxPoint x="459" y="243" as="sourcePoint" />
            <mxPoint x="292" y="205" as="targetPoint" />
          </mxGeometry>
        </mxCell>
        <mxCell id="OfcB3pMj_d2IAtpUaRiv-1" style="edgeStyle=none;curved=1;rounded=0;orthogonalLoop=1;jettySize=auto;html=1;fontSize=12;startSize=8;endSize=8;" edge="1" parent="1" source="6oHL9z6mDf9-s6vMRrMC-5" target="6oHL9z6mDf9-s6vMRrMC-5">
          <mxGeometry relative="1" as="geometry">
            <Array as="points">
              <mxPoint x="541" y="126" />
              <mxPoint x="541" y="158" />
            </Array>
          </mxGeometry>
        </mxCell>
        <mxCell id="OfcB3pMj_d2IAtpUaRiv-12" style="edgeStyle=none;curved=1;rounded=0;orthogonalLoop=1;jettySize=auto;html=1;fontSize=12;startSize=8;endSize=8;" edge="1" parent="1" source="6oHL9z6mDf9-s6vMRrMC-4" target="6oHL9z6mDf9-s6vMRrMC-4">
          <mxGeometry relative="1" as="geometry">
            <Array as="points">
              <mxPoint x="-87" y="119" />
            </Array>
          </mxGeometry>
        </mxCell>
      </root>
    </mxGraphModel>
  </diagram>
</mxfile>
